<?xml version="1.0" encoding="UTF-8"?>
<svg version="1.1" xmlns="http://www.w3.org/2000/svg" width="203" height="203">
<path d="M0 0 C66.99 0 133.98 0 203 0 C203 66.99 203 133.98 203 203 C136.01 203 69.02 203 0 203 C0 136.01 0 69.02 0 0 Z " fill="#0071C5" transform="translate(0,0)"/>
<path d="M0 0 C2.0625 1.75 2.0625 1.75 4 4 C3.8480776 8.27281754 0.62497319 11.0911017 -2.0625 14.125 C-3.07005078 15.28816213 -4.07655316 16.45223319 -5.08203125 17.6171875 C-5.57912598 18.19049805 -6.0762207 18.76380859 -6.58837891 19.35449219 C-12.3096213 26.02366785 -17.62761804 33.04948084 -23 40 C-19.32031131 44.97255228 -15.5623898 49.87887182 -11.75 54.75 C-11.28392334 55.34748047 -10.81784668 55.94496094 -10.33764648 56.56054688 C-7.96718917 59.57830116 -5.55761258 62.5407451 -3.03125 65.4296875 C-2.56364258 65.96883789 -2.09603516 66.50798828 -1.61425781 67.06347656 C-0.32101498 68.54371657 0.98751428 70.01056046 2.296875 71.4765625 C4 74 4 74 3.953125 76.1484375 C2.90148387 78.19137969 1.72779535 79.49756926 0 81 C-6.51255688 73.52135702 -12.88721812 65.97749712 -18.96923828 58.14355469 C-23.50682324 52.31069849 -28.23274264 46.64625276 -33 41 C-30.71421738 36.89770139 -27.94001006 33.40778822 -24.875 29.875 C-23.88469363 28.71936921 -22.89512087 27.56310939 -21.90625 26.40625 C-21.41511719 25.83261719 -20.92398438 25.25898437 -20.41796875 24.66796875 C-16.87673809 20.50238889 -13.44935205 16.24160606 -10 12 C-8.33415458 9.9576632 -6.66750401 7.91598283 -5 5.875 C-4.2575 4.96492188 -3.515 4.05484375 -2.75 3.1171875 C-1.86722208 2.04918385 -0.97977769 0.97977769 0 0 Z " fill="#F6F8FC" transform="translate(65,57)"/>
<path d="M0 0 C0.66 0 1.32 0 2 0 C3.41706502 1.54888502 4.75809496 3.16761534 6.0625 4.8125 C6.87460938 5.82699219 7.68671875 6.84148438 8.5234375 7.88671875 C9.34070313 8.91410156 10.15796875 9.94148438 11 11 C12.39259392 12.71097506 13.78839283 14.41934687 15.1875 16.125 C15.91066406 17.01574219 16.63382813 17.90648438 17.37890625 18.82421875 C19.45307687 21.36005692 21.57977705 23.84730636 23.71484375 26.33203125 C24.68224487 27.47164307 24.68224487 27.47164307 25.66918945 28.63427734 C26.95833419 30.15241383 28.25747667 31.66212506 29.56713867 33.16259766 C30.15599854 33.86046387 30.7448584 34.55833008 31.3515625 35.27734375 C32.15327881 36.20921509 32.15327881 36.20921509 32.97119141 37.15991211 C34 39 34 39 33.81811523 41.03881836 C32.41275723 44.40773536 29.84515845 46.93453722 27.4375 49.625 C26.3321342 50.88697151 25.22796949 52.14999606 24.125 53.4140625 C23.58617187 54.02926758 23.04734375 54.64447266 22.4921875 55.27832031 C18.17245411 60.26241061 14.15199306 65.49657229 10.13671875 70.7265625 C9.63857666 71.37109375 9.14043457 72.015625 8.62719727 72.6796875 C7.63907483 73.95928437 6.65631961 75.24304703 5.67944336 76.53125 C4.4991861 78.05771888 3.25468225 79.53409178 2 81 C1.34 81 0.68 81 0 81 C-1.75 78.75 -1.75 78.75 -3 76 C-1.67127903 72.09000581 1.26249716 69.18492869 3.9375 66.125 C8.58452598 60.73301905 13.03531974 55.21866634 17.38256836 49.58251953 C20.79103818 45.18371226 20.79103818 45.18371226 22.875 43.3515625 C24.19179007 42.06190719 24.19179007 42.06190719 24.00390625 40.1953125 C22.52951132 36.97114928 20.2663325 34.50402752 17.9375 31.875 C16.92994922 30.71183787 15.92344684 29.54776681 14.91796875 28.3828125 C14.42087402 27.80950195 13.9237793 27.23619141 13.41162109 26.64550781 C7.6903787 19.97633215 2.37238196 12.95051916 -3 6 C-2.01 4.02 -1.02 2.04 0 0 Z " fill="#F5F8FC" transform="translate(137,57)"/>
<path d="M0 0 C2.31 0 4.62 0 7 0 C6.48697917 1.79557292 5.97395833 3.59114583 5.4609375 5.38671875 C5.13101807 6.54147705 4.80109863 7.69623535 4.46118164 8.88598633 C3.72868273 11.44965019 2.99611136 14.01329323 2.26342773 16.5769043 C0.65668146 22.19913532 -0.94993073 27.82139902 -2.55078125 33.4453125 C-5.97042253 45.45213231 -9.44307865 57.44332464 -12.92944336 69.4309082 C-13.11762131 70.07805283 -13.30579926 70.72519745 -13.49967957 71.39195251 C-14.01358782 73.15898237 -14.52778017 74.92592961 -15.04199219 76.69287109 C-16.03655761 80.12620014 -17.0200317 83.56248049 -18 87 C-20.31 87 -22.62 87 -25 87 C-23.36284822 77.69322996 -20.70217462 68.7345838 -18.02734375 59.6875 C-17.53903097 58.0251595 -17.05104511 56.36272293 -16.56336975 54.70019531 C-15.54644057 51.23668188 -14.52667608 47.77402115 -13.50463867 44.31201172 C-12.19340177 39.87009821 -10.88768077 35.42658716 -9.58383846 30.98249817 C-8.57914668 27.55920471 -7.57243096 24.13650932 -6.56500435 20.71401978 C-6.08253584 19.0746423 -5.60050254 17.43513668 -5.11890984 15.79550171 C-4.44831499 13.5141333 -3.77520399 11.23352319 -3.10131836 8.953125 C-2.80285004 7.93551842 -2.80285004 7.93551842 -2.49835205 6.89735413 C-1.11454645 2.22909291 -1.11454645 2.22909291 0 0 Z " fill="#F3F7FB" transform="translate(111,54)"/>
</svg>
